# xmcd
# 
# Track frame offsets:
#     150
#     21430
#     41222
#     66122
# 
# Disc length: 1163
# 
# Revision: 1
# Processed by: cddbd v1.5.2PL0 Copyright (c) Steve Scherf et al.
# Submitted via: fre:ac v1.0.17
# 
DISCID=34048904
DTITLE=ZEPPET STORE - 遠くまで
DYEAR=1999
DGENRE=Rock
TTITLE0=遠くまで
TTITLE1=BELIEF
TTITLE2=NAME OF LOVE
TTITLE3=遠くまで -off vocal version-
EXTD=
EXTT0=
EXTT1=
EXTT2=
EXTT3=
PLAYORDER=
